<svg xmlns="http://www.w3.org/2000/svg" viewBox="0 0 375 215" font-family="'Arial Black',Impact,Arial,sans-serif">
  <!-- Printer frame -->
  <g transform="translate(105,2)">
    <rect x="0" y="0" width="10" height="78" rx="3" fill="#111827"/>
    <rect x="165" y="0" width="10" height="78" rx="3" fill="#111827"/>
    <rect x="0" y="0" width="175" height="10" rx="3" fill="#111827"/>
    <rect x="14" y="20" width="147" height="7" rx="2" fill="#374151"/>
    <rect x="67" y="14" width="41" height="46" rx="5" fill="#2563eb"/>
    <rect x="74" y="21" width="27" height="24" rx="3" fill="white"/>
    <line x1="74" y1="30" x2="101" y2="30" stroke="#2563eb" stroke-width="1.5"/>
    <line x1="87.5" y1="21" x2="87.5" y2="45" stroke="#2563eb" stroke-width="1.5"/>
    <rect x="82" y="60" width="11" height="17" rx="2" fill="#4b5563"/>
    <polygon points="82,77 93,77 87.5,86" fill="#ef4444"/>
    <circle cx="87.5" cy="91" r="3" fill="#ef4444" opacity="0.4"/>
  </g>
  <!-- Sunburst firework -->
  <g transform="translate(46,52)">
    <line x1="0" y1="0" x2="-8" y2="-30" stroke="#ef4444" stroke-width="5.5" stroke-linecap="round"/>
    <line x1="0" y1="0" x2="16" y2="-27" stroke="#f97316" stroke-width="5.5" stroke-linecap="round"/>
    <line x1="0" y1="0" x2="30" y2="-10" stroke="#eab308" stroke-width="5.5" stroke-linecap="round"/>
    <line x1="0" y1="0" x2="26" y2="14" stroke="#22c55e" stroke-width="5.5" stroke-linecap="round"/>
    <line x1="0" y1="0" x2="4" y2="32" stroke="#3b82f6" stroke-width="5.5" stroke-linecap="round"/>
    <line x1="0" y1="0" x2="-22" y2="22" stroke="#a855f7" stroke-width="5.5" stroke-linecap="round"/>
    <line x1="0" y1="0" x2="-32" y2="0" stroke="#06b6d4" stroke-width="5.5" stroke-linecap="round"/>
    <circle cx="0" cy="0" r="7" fill="#111827"/>
    <circle cx="-8" cy="-30" r="3.5" fill="#ef4444"/>
    <circle cx="16" cy="-27" r="3.5" fill="#f97316"/>
    <circle cx="30" cy="-10" r="3.5" fill="#eab308"/>
    <circle cx="26" cy="14" r="3.5" fill="#22c55e"/>
    <circle cx="4" cy="32" r="3.5" fill="#3b82f6"/>
    <circle cx="-22" cy="22" r="3.5" fill="#a855f7"/>
    <circle cx="-32" cy="0" r="3.5" fill="#06b6d4"/>
  </g>
  <!-- KREVO -->
  <text y="170" font-size="97" font-weight="900" letter-spacing="-1">
    <tspan x="5" fill="#ef4444">K</tspan>
    <tspan fill="#1d4ed8">R</tspan>
    <tspan fill="#f59e0b">E</tspan>
    <tspan fill="#16a34a">V</tspan>
    <tspan fill="#1d4ed8">O</tspan>
  </text>
  <!-- Tagline -->
  <text x="187" y="196" font-size="16" font-weight="700" fill="#1d4ed8" text-anchor="middle" letter-spacing="0.3">From Ideas to 3D Object</text>
</svg>
